<svg width="15" height="15" viewBox="0 0 15 15" fill="none" xmlns="http://www.w3.org/2000/svg">
<path d="M14.2926 6.7843L11.3481 9.65583L12.0457 13.7116C12.0512 13.7496 12.0539 13.8037 12.0539 13.8739C12.0539 13.9874 12.0255 14.0835 11.9689 14.1619C11.9121 14.2405 11.8299 14.2795 11.7214 14.2795C11.6189 14.2795 11.5108 14.2472 11.397 14.1823L7.7547 12.2677L4.11264 14.1823C3.99368 14.2472 3.88557 14.2795 3.78818 14.2795C3.67456 14.2795 3.58943 14.2405 3.5327 14.1619C3.47593 14.0834 3.44757 13.9874 3.44757 13.8739C3.44757 13.8416 3.45294 13.7873 3.46377 13.7116L4.16137 9.65583L1.20869 6.7843C1.07348 6.63829 1.00586 6.50851 1.00586 6.39489C1.00586 6.19478 1.15729 6.07043 1.46005 6.0217L5.53215 5.42965L7.35733 1.73878C7.46009 1.51706 7.59261 1.40625 7.75478 1.40625C7.91699 1.40625 8.04958 1.51706 8.15226 1.73878L9.97736 5.42965L14.0493 6.0217C14.3522 6.07043 14.5036 6.19478 14.5036 6.39489C14.5036 6.51385 14.4334 6.64369 14.2926 6.7843Z" fill="#E18903"/>
<path d="M5.97701 5.65116C5.90454 5.79771 5.76465 5.89927 5.60286 5.9228L1.6282 6.50068L4.50717 9.3005C4.62469 9.41479 4.67833 9.57968 4.65054 9.74124L3.97028 13.6961L7.5225 11.8288L7.53617 11.8218C7.67813 11.7527 7.8449 11.755 7.9852 11.8288L11.5375 13.696L10.8572 9.74124C10.8295 9.57992 10.8829 9.41527 11.0001 9.30098L13.8726 6.49967L9.90499 5.9228C9.7432 5.89927 9.6033 5.79771 9.53083 5.65116L7.75394 2.0578L5.97701 5.65116ZM12.5503 13.875C12.5503 14.0744 12.499 14.277 12.3711 14.4541V14.4541C12.2086 14.6791 11.9665 14.7779 11.7205 14.7779C11.5159 14.7779 11.3273 14.7145 11.1612 14.6216L7.75384 12.8306L4.34315 14.6235L4.34312 14.6235C4.17936 14.7119 3.99098 14.7779 3.78733 14.7779C3.54606 14.7779 3.29624 14.686 3.12874 14.454V14.454C3.00076 14.2769 2.94954 14.0744 2.94954 13.875C2.94954 13.8041 2.95976 13.7191 2.97073 13.6424L2.97291 13.6284L3.62609 9.83076L0.861193 7.14185C0.854986 7.13582 0.848938 7.12962 0.843054 7.12326C0.686338 6.95403 0.51866 6.71584 0.508333 6.42437L0.507812 6.396L0.508125 6.37308C0.514274 6.13689 0.615578 5.9224 0.802961 5.76846C0.97479 5.62729 1.18669 5.56307 1.38022 5.53192L1.38767 5.53078L5.20137 4.97631L6.9098 1.52147C7.04864 1.2271 7.31232 0.910158 7.75394 0.910156L7.77472 0.910399C8.20367 0.920153 8.46135 1.23144 8.59805 1.52137L10.3064 4.97631L14.12 5.53078L14.1274 5.53192C14.321 5.56306 14.5329 5.62725 14.7048 5.76842C14.8983 5.92737 15 6.15083 15 6.396C15 6.71173 14.8184 6.96218 14.6431 7.13724C14.6417 7.13862 14.6403 7.14 14.6389 7.14137L11.8816 9.83034L12.5349 13.6284L12.5371 13.6424C12.5475 13.7153 12.5503 13.797 12.5503 13.875Z" fill="#E18903"/>
<path d="M14.5036 6.39489C14.5036 6.19478 14.3522 6.07043 14.0493 6.0217L9.97736 5.42965L8.15226 1.73878C8.04958 1.51706 7.91699 1.40625 7.75478 1.40625C7.59261 1.40625 7.46009 1.51706 7.35733 1.73878L5.53215 5.42965L1.46005 6.0217C1.15729 6.07043 1.00586 6.19478 1.00586 6.39489C1.00586 6.50851 1.07348 6.63829 1.20869 6.7843L4.16137 9.65583L3.46377 13.7116C3.45294 13.7873 3.44757 13.8416 3.44757 13.8739C3.44757 13.9874 3.47593 14.0834 3.5327 14.1619C3.58943 14.2405 3.67456 14.2795 3.78818 14.2795C3.88557 14.2795 3.99368 14.2472 4.11264 14.1823L7.7547 12.2677L11.397 14.1823C11.5108 14.2472 11.6189 14.2795 11.7214 14.2795C11.8299 14.2795 11.9121 14.2405 11.9689 14.1619C12.0255 14.0835 12.0539 13.9874 12.0539 13.8739C12.0539 13.8037 12.0512 13.7496 12.0457 13.7116L11.3481 9.65583L14.2926 6.7843C14.4334 6.64369 14.5036 6.51385 14.5036 6.39489Z" fill="#FFB601"/>
</svg>
